<svg width="1409" height="1409" viewBox="0 0 1409 1409" fill="none" xmlns="http://www.w3.org/2000/svg">
<rect width="1409" height="1409" fill="black"/>
<mask id="mask0_334_349" style="mask-type:alpha" maskUnits="userSpaceOnUse" x="241" y="478" width="924" height="451">
<path d="M241.733 576.727V478.091H633.636V576.727H498.011V929H377.358V576.727H241.733ZM802.122 478.091V929H679.707V478.091H802.122ZM860.137 929V478.091H982.551V830.364H1164.85V929H860.137Z" fill="white"/>
</mask>
<g mask="url(#mask0_334_349)">
<mask id="mask1_334_349" style="mask-type:alpha" maskUnits="userSpaceOnUse" x="-370" y="97" width="1920" height="1080">
<rect x="-370" y="97" width="1920" height="1080" fill="#0C0C0C"/>
</mask>
<g mask="url(#mask1_334_349)">
<rect x="-370" y="97" width="1920" height="1080" fill="black"/>
<g filter="url(#filter0_f_334_349)">
<path fill-rule="evenodd" clip-rule="evenodd" d="M1222.55 102.339C1289.42 99.8393 1338.38 142.894 1390.5 174.76C1450.46 211.428 1539.92 239.507 1542.33 297.879C1544.73 356.322 1452.18 384.51 1400.93 428.21C1345.96 475.082 1316.63 545.033 1235.99 559.073C1145.13 574.893 1032.65 559.004 977.748 501.892C925.219 447.246 974.919 373.23 993.831 307.154C1006.7 262.183 1028.7 221.941 1067.93 186.817C1110.6 148.605 1156.58 104.805 1222.55 102.339Z" fill="#F6F2FF"/>
<path fill-rule="evenodd" clip-rule="evenodd" d="M1189.16 661.134C1260.85 665.908 1319.57 703.413 1363.77 746.562C1402.34 784.225 1411.17 831.495 1412.51 879.205C1413.89 928.372 1403.51 974.946 1371.39 1017.64C1323.77 1080.94 1284.37 1166.89 1189.16 1176.09C1092.2 1185.46 1006.11 1120.73 953.795 1058.01C910.079 1005.6 936.509 941.132 941.511 879.205C946.006 823.536 933.047 763.304 981.005 721.074C1031.39 676.704 1112.32 656.017 1189.16 661.134Z" fill="#932F6D"/>
<path fill-rule="evenodd" clip-rule="evenodd" d="M729.74 681.753C821.951 680.226 909.704 707.758 977.828 754.971C1049.44 804.599 1108.96 869.739 1107.2 943.344C1105.46 1016.03 1047.33 1083.22 968.969 1124.99C900.728 1161.36 812.116 1154.31 729.74 1144.53C662.436 1136.55 605.525 1110.73 555.178 1075.89C501.476 1038.73 449.985 997.881 439.015 943.344C426.28 880.039 437.847 811.953 492.24 763.011C550.456 710.629 639.493 683.247 729.74 681.753Z" fill="#363965"/>
<path fill-rule="evenodd" clip-rule="evenodd" d="M597.68 415.307C679.175 418.588 715.485 490.713 775.303 532.942C839.607 578.338 952.358 601.373 955.703 668.058C959.057 734.909 854.021 768.518 789.399 813.896C729.136 856.212 679.653 921.413 597.68 919.463C516.412 917.53 475.856 848.188 417.588 805.051C357.849 760.824 261.928 731.402 258.093 668.058C254.215 603.995 339.942 562.691 400.202 517.84C459.421 473.763 514.944 411.976 597.68 415.307Z" fill="#420039"/>
<path fill-rule="evenodd" clip-rule="evenodd" d="M790.073 157.419C869.574 165.52 931.819 206.069 986.049 250.932C1037.26 293.299 1078.45 342.283 1082.92 399.682C1087.67 460.63 1066.18 522.93 1010.67 567.122C954.01 612.24 871.809 626.813 790.073 632.859C696.59 639.773 585.232 655.883 521.835 603.28C459.025 551.165 507.014 470.296 509.048 399.682C511.003 331.866 474.261 255.71 533.318 204.799C593.825 152.637 699.324 148.172 790.073 157.419Z" fill="#DCCCFF"/>
</g>
</g>
</g>
<defs>
<filter id="filter0_f_334_349" x="-1070" y="-597.765" width="3312.37" height="2474.77" filterUnits="userSpaceOnUse" color-interpolation-filters="sRGB">
<feFlood flood-opacity="0" result="BackgroundImageFix"/>
<feBlend mode="normal" in="SourceGraphic" in2="BackgroundImageFix" result="shape"/>
<feGaussianBlur stdDeviation="350" result="effect1_foregroundBlur_334_349"/>
</filter>
</defs>
</svg>
