<svg width="62" height="60" viewBox="0 0 62 60" fill="none" xmlns="http://www.w3.org/2000/svg">
<path d="M61.9999 30C61.9999 46.5685 48.2943 60 31.3876 60C14.481 60 0.775391 46.5685 0.775391 30C0.775391 13.4315 14.481 0 31.3876 0C48.2943 0 61.9999 13.4315 61.9999 30Z" fill="#D9D9D9"/>
<path d="M43.4274 25.7672C43.4274 32.2836 38.037 37.5661 31.3876 37.5661C24.7383 37.5661 19.3479 32.2836 19.3479 25.7672C19.3479 19.2508 24.7383 13.9683 31.3876 13.9683C38.037 13.9683 43.4274 19.2508 43.4274 25.7672Z" fill="white"/>
<path d="M9.50113 50.975C10.9411 40.4179 20.167 32.2751 31.3337 32.2751C42.5337 32.2751 51.7815 40.4668 53.1789 51.07C47.6281 56.583 39.9151 60 31.3876 60C22.8113 60 15.0588 56.5437 9.50113 50.975Z" fill="white"/>
</svg>
